# xmcd
# 
# Track frame offsets:
#     150
#     2410
#     14859
#     44357
#     57597
#     79066
#     94535
#     109296
#     127022
#     142217
#     154147
# 
# Disc length: 2429
# 
# Revision: 0
# Processed by: cddbd v1.5.2PL0 Copyright (c) Steve Scherf et al.
# Submitted via: fre:ac v1.0.31
# 
DISCID=97097b0b
DTITLE=Dan Fogelberg - High Country Snows
DYEAR=1985
DGENRE=Rock/Pop
TTITLE0=Down The Road
TTITLE1=Dan Fogelberg - Mountain Pass
TTITLE2=Dan Fogelberg - Sutter's Mill
TTITLE3=Dan Fogelberg - Wolf Creek
TTITLE4=Dan Fogelberg - High Country Snows
TTITLE5=Dan Fogelberg - The Outlaw
TTITLE6=Dan Fogelberg - Shallow Rivers
TTITLE7=Dan Fogelberg - Go Down Easy
TTITLE8=Dan Fogelberg - Wandering Shepherd
TTITLE9=Dan Fogelberg - Think Of What You've Done
TTITLE10=Dan Fogelberg - The Higher You Climb
EXTD=
EXTT0=
EXTT1=
EXTT2=
EXTT3=
EXTT4=
EXTT5=
EXTT6=
EXTT7=
EXTT8=
EXTT9=
EXTT10=
PLAYORDER=
